<?xml version="1.0" encoding="iso-8859-1"?>
<!-- Generator: Adobe Illustrator 19.0.0, SVG Export Plug-In . SVG Version: 6.00 Build 0)  -->
<svg version="1.1" id="Layer_1" xmlns="http://www.w3.org/2000/svg" xmlns:xlink="http://www.w3.org/1999/xlink" x="0px" y="0px"
	 viewBox="0 0 330 330" style="enable-background:new 0 0 330 330;" xml:space="preserve">
<path id="XMLID_30_" d="M154.394,325.606C157.322,328.535,161.161,330,165,330s7.678-1.465,10.607-4.394l75-75
	c5.858-5.857,5.858-15.355,0-21.213c-5.858-5.857-15.356-5.857-21.213,0L180,278.787V15c0-8.284-6.716-15-15-15
	c-8.284,0-15,6.716-15,15v263.787l-49.394-49.394c-5.858-5.857-15.355-5.857-21.213,0c-5.858,5.857-5.858,15.355,0,21.213
	L154.394,325.606z"/>
<g>
</g>
<g>
</g>
<g>
</g>
<g>
</g>
<g>
</g>
<g>
</g>
<g>
</g>
<g>
</g>
<g>
</g>
<g>
</g>
<g>
</g>
<g>
</g>
<g>
</g>
<g>
</g>
<g>
</g>
</svg>
