<?xml version="1.0" encoding="iso-8859-1"?>
<!-- Generator: Adobe Illustrator 16.0.0, SVG Export Plug-In . SVG Version: 6.00 Build 0)  -->
<!DOCTYPE svg PUBLIC "-//W3C//DTD SVG 1.1//EN" "http://www.w3.org/Graphics/SVG/1.1/DTD/svg11.dtd">
<svg version="1.1" id="Capa_1" xmlns="http://www.w3.org/2000/svg" xmlns:xlink="http://www.w3.org/1999/xlink" x="0px" y="0px"
	 width="752.807px" height="752.807px" viewBox="0 0 752.807 752.807" style="enable-background:new 0 0 752.807 752.807;"
	 xml:space="preserve">
<g>
	<g id="Home">
		<g>
			<path d="M668.609,280.014L397.211,8.615c-11.486-11.487-30.105-11.487-41.616,0L84.197,280.014
				c-8.827,8.851-13.793,20.808-13.793,33.307v392.409c0,26.011,21.09,47.077,47.077,47.077H282.25
				c25.986,0,47.077-21.09,47.077-47.077V540.961h94.154v164.769c0,26.011,21.066,47.077,47.077,47.077h164.769
				c25.986,0,47.077-21.09,47.077-47.077V313.321C682.403,300.822,677.437,288.864,668.609,280.014z M611.788,682.191H494.096
				v-164.77c0-25.986-21.091-47.076-47.077-47.076h-141.23c-26.01,0-47.077,21.09-47.077,47.076v164.77H141.019V323.065
				L376.403,87.681l235.385,235.384V682.191z"/>
		</g>
	</g>
</g>
<g>
</g>
<g>
</g>
<g>
</g>
<g>
</g>
<g>
</g>
<g>
</g>
<g>
</g>
<g>
</g>
<g>
</g>
<g>
</g>
<g>
</g>
<g>
</g>
<g>
</g>
<g>
</g>
<g>
</g>
</svg>
